<svg width="103" height="92" viewBox="0 0 103 92" fill="none" xmlns="http://www.w3.org/2000/svg">
<path d="M95.6331 0.476929H17.7902C14.0801 0.476929 10.9999 3.48209 10.9999 7.25601V61.3489H2.52963C1.61959 61.3489 0.849548 62.1177 0.849548 63.0262C0.849548 66.7303 3.85971 69.8053 7.63985 69.8053H56.7116V90.0727C56.7116 90.9812 57.4817 91.75 58.3917 91.75C58.8117 91.75 59.3017 91.5403 59.5817 91.2608L68.5421 82.3152L77.5024 91.2608C77.8524 91.6102 78.2725 91.75 78.6925 91.75C78.9025 91.75 79.1125 91.6801 79.3225 91.6102C79.9525 91.3307 80.3726 90.7017 80.3726 90.0727V69.8053H85.4827C89.1928 69.8053 92.273 66.8002 92.273 63.0262V8.86343H100.743C101.653 8.86343 102.423 8.09467 102.423 7.18613C102.423 3.48209 99.4132 0.476929 95.6331 0.476929ZM88.8428 7.18613V61.279H82.0525V64.6336H88.3528C87.7227 65.682 86.6027 66.3109 85.4127 66.3109H80.3025V64.6336H76.9424V85.8794L69.6621 78.6111C69.0321 77.9822 67.912 77.9822 67.282 78.6111L60.0017 85.8794V64.6336H56.6417V66.3109H7.56986C6.37982 66.3109 5.25973 65.682 4.6297 64.6336H54.9616V61.279H14.3601V7.18613C14.3601 5.29917 15.9002 3.83153 17.7202 3.83153H89.7528C89.1928 4.87984 88.9128 5.99804 88.8428 7.18613ZM92.693 5.50883C93.603 3.90141 95.7031 3.34232 97.3131 4.25085C97.8032 4.5304 98.2232 4.94973 98.5732 5.50883H92.693Z" fill="#FFB743"/>
<path d="M84.5027 53.3119L82.3326 49.4681L84.5027 45.6243C84.9927 44.7856 84.6428 43.8072 83.8728 43.318C83.8028 43.318 83.8027 43.2481 83.7327 43.2481L79.6726 41.431L79.1825 37.0281C79.0425 36.1196 78.2025 35.4207 77.2925 35.5605C77.2225 35.5605 77.2224 35.5605 77.1524 35.5605L72.8123 36.3991L69.8021 33.1144C69.1021 32.4155 68.0521 32.4155 67.352 33.1144L64.342 36.3991L60.0018 35.5605C59.0917 35.3508 58.1817 35.9798 58.0417 36.8883C58.0417 36.9582 58.0417 36.9582 58.0417 37.0281L57.5517 41.431L53.4916 43.2481C52.6515 43.6674 52.3015 44.6458 52.6515 45.4845C52.6515 45.5544 52.7215 45.5544 52.7215 45.6243L54.8916 49.4681L52.7215 53.3119C52.2315 54.1505 52.5815 55.129 53.3515 55.6182C53.4215 55.6182 53.4215 55.6881 53.4916 55.6881L57.5517 57.5051L58.0417 61.9081C58.1817 62.8166 59.0217 63.5155 59.9318 63.3757C60.0018 63.3757 60.0018 63.3757 60.0718 63.3757L64.412 62.537L67.4221 65.8218C68.0521 66.5206 69.1021 66.5206 69.8021 65.8916L69.8722 65.8218L72.8823 62.537L77.2225 63.3757C77.7125 63.4456 78.1325 63.3757 78.5525 63.0961C78.9025 62.8166 79.1825 62.3973 79.2525 61.9081L79.7426 57.5051L83.8027 55.6881C84.6427 55.2687 84.9928 54.2903 84.6428 53.4517C84.5728 53.4517 84.5727 53.3818 84.5027 53.3119ZM78.9025 50.3067L80.6526 53.3818L77.4325 54.8494C76.8724 55.129 76.5224 55.6182 76.4524 56.1773L76.0324 59.7415L72.5323 59.0427C71.9722 58.9029 71.3423 59.1126 70.9922 59.5319L68.5421 62.1177L66.092 59.5319C65.742 59.1824 65.322 58.9728 64.832 58.9728C64.692 58.9728 64.622 58.9728 64.4819 58.9728L60.9818 59.6717L60.5618 56.1074C60.4918 55.5483 60.1418 54.9892 59.5818 54.7795L56.3616 53.3119L58.1117 50.2368C58.3917 49.7476 58.3917 49.1186 58.1117 48.5595L56.3616 45.4845L59.5818 44.0169C60.1418 43.7373 60.4918 43.2481 60.5618 42.689L60.9818 39.1247L64.4819 39.8236C65.042 39.9634 65.672 39.7537 66.0221 39.3344L68.4722 36.7485L70.9223 39.3344C71.3423 39.7537 71.9023 39.9634 72.4623 39.8236L75.9624 39.1247L76.3824 42.689C76.4524 43.2481 76.8024 43.8072 77.3625 44.0169L80.5826 45.4845L78.8325 48.5595C78.6225 49.1186 78.6225 49.7476 78.9025 50.3067Z" fill="#FFB743"/>
<path d="M68.5421 41.0117C63.8519 41.0117 60.0718 44.7856 60.0718 49.4681C60.0718 54.1505 63.8519 57.9245 68.5421 57.9245C73.2322 57.9245 77.0124 54.1505 77.0124 49.4681C77.0124 44.7856 73.2322 41.0117 68.5421 41.0117ZM68.5421 54.5C65.742 54.5 63.4319 52.2636 63.4319 49.3982C63.4319 46.6027 65.672 44.2964 68.5421 44.2964C71.4122 44.2964 73.6522 46.5328 73.6522 49.3982C73.6522 52.2636 71.3422 54.5 68.5421 54.5Z" fill="#FFB743"/>
<path d="M65.182 10.6106H38.091V13.9652H65.182V10.6106Z" fill="#FFB743"/>
<path d="M82.1226 20.7443H21.1503V24.0989H82.1226V20.7443Z" fill="#FFB743"/>
<path d="M82.1226 27.4535H21.1503V30.8081H82.1226V27.4535Z" fill="#FFB743"/>
<path d="M44.8112 49.468H22.8304V52.8227H44.8112V49.468Z" fill="#FFB743"/>
</svg>
