<svg width="88" height="88" viewBox="0 0 88 88" fill="none" xmlns="http://www.w3.org/2000/svg">
<path d="M43.6583 75.9117C61.1603 75.9117 75.4487 61.704 75.4487 44.1736C75.4487 26.6431 61.2176 12.4354 43.6583 12.4354C26.099 12.4354 11.8679 26.6431 11.8679 44.1736C11.8679 61.704 26.1564 75.9117 43.6583 75.9117ZM43.6583 15.5863C59.4388 15.5863 72.2926 28.4191 72.2926 44.1736C72.2926 59.9281 59.4388 72.7608 43.6583 72.7608C27.8779 72.7608 15.024 59.9281 15.024 44.1736C15.024 28.4191 27.8779 15.5863 43.6583 15.5863Z" fill="#FFB743"/>
<path d="M42.0516 48.6421V56.8345C42.0516 57.6938 42.7402 58.4385 43.6583 58.4385C44.5191 58.4385 45.2651 57.7511 45.2651 56.8345V48.6421C46.5275 48.1838 47.5604 47.2099 48.0769 45.9495C48.5933 44.6892 48.5359 43.3142 47.9621 42.0539L52.7249 37.2989C53.3561 36.6687 53.3561 35.6948 52.7249 35.0646C52.0937 34.4344 51.1181 34.4344 50.4869 35.0646L45.7241 39.8196C44.5191 39.2467 43.1993 39.1894 41.9368 39.6477C40.7318 40.1061 39.7563 41.08 39.2398 42.283C38.7234 43.4861 38.7807 44.861 39.2972 46.0641C39.8136 47.3245 40.8466 48.2411 42.0516 48.6421ZM43.6583 42.5695C44.2896 42.5695 44.8634 42.9705 45.1503 43.5434C45.3798 44.1163 45.2651 44.8038 44.806 45.2621C44.3469 45.7204 43.6583 45.835 43.0845 45.6058C42.5107 45.3766 42.109 44.8038 42.109 44.1163C42.0516 43.3142 42.7976 42.5695 43.6583 42.5695Z" fill="#FFB743"/>
<path d="M21.5657 56.7772C21.5657 56.8344 21.6231 56.8344 21.6231 56.8917C21.6231 56.949 21.6805 56.949 21.6805 56.949C23.9184 60.7301 27.0171 63.881 30.8044 66.058C30.8618 66.058 30.8618 66.1153 30.9192 66.1153C30.9192 66.1153 30.9766 66.1153 30.9766 66.1726C38.7807 70.6411 48.4211 70.6411 56.2827 66.1726C56.2827 66.1726 56.34 66.1726 56.34 66.1153C56.3974 66.1153 56.3974 66.058 56.4548 66.058C60.2421 63.8237 63.3982 60.6728 65.5788 56.949C65.5788 56.8917 65.6362 56.8917 65.6362 56.8917C65.6362 56.8344 65.6935 56.8344 65.6935 56.7772C70.1694 48.9859 70.1694 39.3613 65.6935 31.57C65.6935 31.5127 65.6362 31.5127 65.6362 31.4554C65.6362 31.3981 65.5788 31.3981 65.5788 31.3408C63.3408 27.5597 60.2421 24.4661 56.4548 22.2319C56.3974 22.2319 56.3974 22.1746 56.34 22.1746C56.2827 22.1746 56.2827 22.1173 56.2253 22.1173C48.4211 17.6487 38.7807 17.6487 30.9766 22.1173C30.9192 22.1173 30.9192 22.1746 30.8618 22.1746C30.8045 22.1746 30.8044 22.2319 30.7471 22.2319C26.9598 24.4661 23.861 27.5597 21.6231 31.3408C21.6231 31.3981 21.5657 31.3981 21.5657 31.4554C21.5657 31.5127 21.5083 31.5127 21.5083 31.57C17.0898 39.3613 17.0898 48.9859 21.5657 56.7772ZM23.6315 34.4917L26.3285 36.0385C26.6728 36.2677 27.1319 36.325 27.5336 36.2104C27.9353 36.0958 28.2796 35.8094 28.5091 35.4656C28.7386 35.1219 28.796 34.6636 28.6812 34.2626C28.5665 33.8615 28.2796 33.5178 27.9353 33.2886L25.2382 31.7418C26.845 29.393 28.8534 27.3879 31.2061 25.7838L32.7555 28.4764C32.985 28.8201 33.3293 29.1065 33.731 29.2211C34.1327 29.3357 34.5917 29.2784 34.936 29.0493C35.2803 28.8201 35.5673 28.4764 35.682 28.0753C35.7968 27.6743 35.7394 27.216 35.5099 26.8723L33.9605 24.1797C36.4854 22.9193 39.2398 22.1746 42.109 22.0027V25.0963C42.109 25.9556 42.7976 26.7004 43.7157 26.7004C44.5764 26.7004 45.3224 26.0129 45.3224 25.0963V22.0027C48.1342 22.1746 50.8886 22.9193 53.4709 24.1797L51.9215 26.8723C51.692 27.216 51.6346 27.6743 51.7494 28.0753C51.8641 28.4764 52.151 28.8201 52.4953 29.0493C52.8396 29.2784 53.2987 29.3357 53.7004 29.2211C54.1021 29.1065 54.4464 28.8201 54.6759 28.4764L56.2253 25.7838C58.578 27.3879 60.5864 29.393 62.1932 31.7418L59.4961 33.2886C59.1518 33.5178 58.8649 33.8615 58.7502 34.2626C58.6354 34.6636 58.6928 35.1219 58.9223 35.4656C59.1518 35.8094 59.4961 36.0958 59.8978 36.2104C60.2995 36.325 60.7586 36.2677 61.1029 36.0385L63.7999 34.4917C65.0623 37.0124 65.8083 39.7623 65.9804 42.6268H62.8818C62.021 42.6268 61.275 43.3142 61.275 44.2309C61.275 45.0902 61.9636 45.8349 62.8818 45.8349H65.9804C65.8083 48.6421 65.0623 51.392 63.7999 53.97L61.1029 52.4232C60.7586 52.194 60.2995 52.1367 59.8978 52.2513C59.4961 52.3659 59.1518 52.6523 58.9223 52.9961C58.6928 53.3398 58.6354 53.7981 58.7502 54.1992C58.8649 54.6002 59.1518 54.9439 59.4961 55.1731L62.1932 56.7199C60.5864 59.0687 58.578 61.0738 56.2253 62.6779L54.6759 59.9853C54.4464 59.6416 54.1021 59.3552 53.7004 59.2406C53.2987 59.126 52.8396 59.1833 52.4953 59.4125C52.151 59.6416 51.8641 59.9853 51.7494 60.3864C51.6346 60.7874 51.692 61.2457 51.9215 61.5894L53.4709 64.282C50.946 65.5424 48.1916 66.2871 45.3224 66.459V63.3654C45.3224 62.5061 44.6338 61.7613 43.7157 61.7613C42.8549 61.7613 42.109 62.4488 42.109 63.3654V66.459C39.2972 66.2871 36.5428 65.5424 33.9605 64.282L35.5099 61.5894C35.9689 60.8447 35.682 59.8708 34.936 59.4125C34.1901 58.9541 33.2145 59.2406 32.7555 59.9853L31.2061 62.6779C28.8534 61.0738 26.845 59.0687 25.2382 56.7199L27.9353 55.1731C28.2796 54.9439 28.5665 54.6002 28.6812 54.1992C28.796 53.7981 28.7386 53.3398 28.5091 52.9961C28.2796 52.6523 27.9353 52.3659 27.5336 52.2513C27.1319 52.1367 26.6728 52.194 26.3285 52.4232L23.6315 53.97C22.3691 51.4493 21.6231 48.6994 21.4509 45.8349H24.5497C25.4104 45.8349 26.1564 45.1475 26.1564 44.2309C26.1564 43.3715 25.4678 42.6268 24.5497 42.6268H21.4509C21.6805 39.7623 22.4265 37.0124 23.6315 34.4917Z" fill="#FFB743"/>
<path d="M87.0975 39.0175C85.376 24.5807 76.5389 11.9198 63.5129 5.33159C50.5443 -1.25666 35.1081 -0.97021 22.369 6.13363C22.0247 6.36279 21.7378 6.70652 21.623 7.10755C21.5083 7.50857 21.5657 7.96688 21.7378 8.31062C21.9673 8.65435 22.3116 8.9408 22.7133 9.05537C23.115 9.16995 23.5741 9.11266 23.9184 8.88351C38.2068 0.920329 55.8809 2.29526 68.7348 12.3781C86.2941 26.1848 89.3354 51.6784 75.5634 69.2089C68.907 77.6304 59.2092 83.0728 48.5359 84.3905C37.8625 85.6508 27.1319 82.6718 18.6965 76.0263C2.28484 63.1362 -1.55986 39.9342 9.57252 22.5183L9.91684 25.2682C10.0316 26.1275 10.835 26.7577 11.6957 26.6431C12.5565 26.5285 13.1877 25.7838 13.0729 24.8672L12.2695 18.0498C12.2122 17.6487 11.9826 17.2477 11.6957 16.9613C11.3514 16.6748 10.9497 16.5602 10.548 16.6175L3.7194 17.4196C2.85865 17.5342 2.22746 18.3362 2.34222 19.1955C2.45699 20.0549 3.26034 20.6851 4.12109 20.5705L7.33459 20.1695C-1.50246 33.5751 -2.24846 50.7045 5.38354 64.7976C13.0155 78.8907 27.7057 87.7132 43.773 87.7705C45.5519 87.7705 47.2734 87.656 49.0523 87.4268C60.5864 86.0519 71.0302 80.1511 78.2031 71.0994C85.2039 62.0477 88.4747 50.5326 87.0975 39.0175Z" fill="#FFB743"/>
</svg>
