<svg width="93" height="83" viewBox="0 0 93 83" fill="none" xmlns="http://www.w3.org/2000/svg">
<path d="M46.5086 29.1067C46.5787 29.6666 46.9994 30.2965 47.7005 30.3665L63.8249 34.286C63.8951 34.286 64.0353 34.286 64.2456 34.286C64.7364 34.286 65.2271 34.0061 65.5075 33.5861L74.1306 19.7979C74.5513 19.2379 74.4111 18.538 74.0605 18.0481C73.6399 17.5581 73.0089 17.3482 72.3079 17.6281L69.784 18.608L61.9321 1.25016C61.6517 0.690228 61.1609 0.340271 60.53 0.340271H35.0112C34.5204 0.340271 34.0998 0.550246 33.8193 0.900202L19.3774 18.1181C19.097 18.398 18.9567 18.888 19.0969 19.3079C19.2372 19.7279 19.3774 20.0778 19.6578 20.3578L34.0998 31.0665C34.8008 31.5564 35.7823 31.4864 36.2731 30.7865L45.6674 18.0481L50.1542 26.0971L47.2798 27.5669C46.6488 27.9168 46.3684 28.5468 46.5086 29.1067ZM34.5905 27.7069L22.7425 18.888L35.7122 3.41989H37.7453L44.125 15.2484L34.5905 27.7069ZM47.1396 14.6185L41.0403 3.3499H59.268L67.3303 21.1977C67.6107 21.7576 68.3118 22.1776 68.8726 22.1076L63.194 31.2064L52.3275 28.5468L52.8883 28.2668C53.309 28.0568 53.5894 27.7769 53.6595 27.3569C53.7296 26.937 53.7296 26.587 53.5894 26.1671L47.1396 14.6185Z" fill="#FFB743"/>
<path d="M16.2226 77.3307C16.503 77.7506 16.9938 78.0306 17.4845 78.0306H39.8485C40.7599 78.0306 41.3908 77.3307 41.3908 76.4908V59.203C41.3908 58.433 40.6898 57.7331 39.9186 57.6631L24.0044 56.9632L28.1407 48.7043L30.8749 50.2441C31.4357 50.524 32.1368 50.524 32.6275 50.0341C33.1183 49.6141 33.3286 48.9842 33.0482 48.3543L27.2293 32.8862C27.019 32.3263 26.4581 31.9063 25.7571 31.9063L9.35215 32.4663C8.65108 32.4663 8.16034 32.9562 7.95002 33.5161C7.7397 34.0761 8.02014 34.776 8.51088 35.1959L10.7543 36.7357L0.869255 52.9737C0.588829 53.4637 0.588829 54.1636 0.869255 54.6535L11.876 70.8215L16.2226 77.3307ZM38.3062 60.6728V74.951H18.2557L16.2927 71.9414L22.6023 59.9729L38.3062 60.6728ZM14.4699 37.2257C14.8906 36.6657 14.7503 35.9658 14.2596 35.4759L24.9859 34.986L28.9119 45.5546L28.351 45.2747C27.9304 45.0647 27.5798 44.9947 27.1592 45.2047C26.7386 45.2747 26.4581 45.6246 26.2478 45.9746L20.3589 57.7331L14.3998 69.0017L4.16427 53.8836L14.4699 37.2257Z" fill="#FFB743"/>
<path d="M82.1928 32.3263C81.9825 31.9063 81.7021 31.6264 81.2815 31.5564C80.8608 31.4864 80.5103 31.4864 80.0896 31.7663L64.3858 40.5153C63.6847 40.9352 63.4043 41.9151 63.8249 42.545L71.4665 56.3333L62.2826 57.1032L62.2125 53.9536C62.2125 53.2537 61.7217 52.7637 61.1609 52.5538C60.6 52.3438 59.899 52.5538 59.4783 53.0437L49.2427 66.0621C48.8221 66.552 48.8221 67.3219 49.1727 67.8119L58.2865 81.3202C58.5669 81.7401 59.0577 82.0201 59.5484 82.0201C59.6185 82.0201 59.8288 82.0201 59.969 81.9501C60.5299 81.7401 61.0206 81.1802 61.0206 80.5503L61.0908 77.8206H80.1598C80.7206 77.8206 81.3516 77.4007 81.5619 76.9107L92.0779 53.6736C92.2882 53.2537 92.2882 52.7637 92.0779 52.4138L82.1928 32.3263ZM67.1901 42.335L80.1598 35.0559L89.0633 53.1837L88.1519 55.0734L74.6914 56.0533L67.1901 42.335ZM79.3185 74.951H59.7587C59.0577 74.951 58.4968 75.4409 58.2865 76.0009L52.3274 67.112L59.268 58.2231V58.923C59.268 59.3429 59.4783 59.6929 59.7587 59.9728C60.0392 60.2528 60.4598 60.3928 60.9506 60.3928L74.1306 59.2029L86.89 58.293L79.3185 74.951Z" fill="#FFB743"/>
</svg>
