<svg width="92" height="95" viewBox="0 0 92 95" fill="none" xmlns="http://www.w3.org/2000/svg">
<path d="M86.9898 16.7681H78.3882C76.497 16.7681 74.9109 17.9253 74.2399 19.5697L54.5356 11.165V5.50096C54.5356 3.0039 52.5225 0.99408 50.0213 0.99408H41.4807C38.9796 0.99408 36.9664 3.0039 36.9664 5.50096V11.2259L17.3231 19.5697C16.6521 17.9253 15.066 16.7681 13.1749 16.7681H4.57329C2.07212 16.7681 0.0589905 18.778 0.0589905 21.275V29.8624C0.0589905 32.3595 2.07212 34.3693 4.57329 34.3693H7.13546V60.6797H4.57329C2.07212 60.6797 0.0589905 62.6896 0.0589905 65.1866V73.774C0.0589905 76.2711 2.07212 78.2809 4.57329 78.2809H13.1749C15.066 78.2809 16.6521 77.1237 17.3231 75.4793L36.9664 83.8232V89.5481C36.9664 92.0452 38.9796 94.055 41.4807 94.055H50.0823C52.5835 94.055 54.5966 92.0452 54.5966 89.5481V83.8232L74.2399 75.4184C74.9109 77.0628 76.497 78.22 78.3882 78.22H86.9898C89.4909 78.22 91.504 76.2102 91.504 73.7131V65.1257C91.504 62.6287 89.4909 60.6188 86.9898 60.6188H84.4276V34.3084H86.9898C89.4909 34.3084 91.504 32.2986 91.504 29.8015V21.275C91.443 18.778 89.4299 16.7681 86.9898 16.7681ZM54.5356 35.222C54.4746 32.7858 52.5225 30.776 50.0213 30.776H41.4807C39.0406 30.776 37.0274 32.7858 36.9664 35.222L17.6282 27V23.2848L37.0274 15.0019C37.4545 17.0727 39.2846 18.5953 41.4197 18.5953H50.0213C52.2174 18.5953 53.9866 17.0727 54.4136 15.0019L73.8739 23.2848V27L54.5356 35.222ZM41.4807 76.4538C39.2846 76.4538 37.5155 77.9764 37.0884 80.0471L17.6892 71.7642V65.1866C17.6892 62.6896 15.676 60.6797 13.1749 60.6797H10.6127V34.3084H13.1749C15.371 34.3084 17.1401 32.7858 17.5672 30.7151L36.9664 38.998V43.8094C36.9664 46.3065 38.9796 48.3163 41.4807 48.3163H43.9819V76.3929H41.4807V76.4538ZM41.4807 44.8448C40.9317 44.8448 40.5047 44.4184 40.5047 43.8703V35.2829C40.5047 34.7347 40.9317 34.3084 41.4807 34.3084H50.0823C50.6313 34.3084 51.0584 34.7347 51.0584 35.2829V43.8703C51.0584 44.4184 50.6313 44.8448 50.0823 44.8448H41.4807ZM40.5047 5.50096C40.5047 4.95282 40.9317 4.5265 41.4807 4.5265H50.0823C50.6313 4.5265 51.0584 4.95282 51.0584 5.50096V14.0884C51.0584 14.6365 50.6313 15.0628 50.0823 15.0628H41.4807C40.9317 15.0628 40.5047 14.6365 40.5047 14.0884V5.50096ZM3.59722 29.8624V21.275C3.59722 20.7269 4.02425 20.3006 4.57329 20.3006H13.1749C13.7239 20.3006 14.1509 20.7269 14.1509 21.275V29.8624C14.1509 30.4106 13.7239 30.8369 13.1749 30.8369H4.57329C4.02425 30.8369 3.59722 30.4106 3.59722 29.8624ZM14.0899 73.7131C14.0899 74.2613 13.6629 74.6876 13.1139 74.6876H4.57329C4.02425 74.6876 3.59722 74.2613 3.59722 73.7131V65.1257C3.59722 64.5776 4.02425 64.1512 4.57329 64.1512H13.1749C13.7239 64.1512 14.1509 64.5776 14.1509 65.1257V73.7131H14.0899ZM50.9974 89.4872C50.9974 90.0353 50.5703 90.4617 50.0213 90.4617H41.4807C40.9317 90.4617 40.5047 90.0353 40.5047 89.4872V80.8998C40.5047 80.3516 40.9317 79.9253 41.4807 79.9253H50.0823C50.6313 79.9253 51.0584 80.3516 51.0584 80.8998V89.4872H50.9974ZM87.9658 65.1257V73.7131C87.9658 74.2613 87.5388 74.6876 86.9898 74.6876H78.3882C77.8391 74.6876 77.4121 74.2613 77.4121 73.7131V65.1257C77.4121 64.5776 77.8391 64.1512 78.3882 64.1512H86.9898C87.4778 64.1512 87.9658 64.5776 87.9658 65.1257ZM80.8893 60.6797H78.3272C75.826 60.6797 73.8129 62.6896 73.8129 65.1866V71.7642L54.4136 80.0471C53.9866 77.9764 52.1564 76.4538 50.0213 76.4538H47.4591V48.3772H50.0213C52.5225 48.3772 54.5356 46.3674 54.5356 43.8703V39.0589L73.9349 30.776C74.3619 32.8467 76.192 34.3693 78.3272 34.3693H80.8893V60.6797ZM87.9658 29.8624C87.9658 30.4106 87.5388 30.8369 86.9898 30.8369H78.3882C77.8391 30.8369 77.4121 30.4106 77.4121 29.8624V21.275C77.4121 20.7269 77.8391 20.3006 78.3882 20.3006H86.9898C87.5388 20.3006 87.9658 20.7269 87.9658 21.275V29.8624Z" fill="#FFB743"/>
</svg>
