<svg width="57" height="36" viewBox="0 0 57 36" fill="none" xmlns="http://www.w3.org/2000/svg">
<g>
<path d="M36.2 4.60001H20.8V32.2H36.2V4.60001Z" fill="#E8601D"/>
<path d="M21.8 18.3C21.8 12.7 24.4 7.70002 28.5 4.50002C25.5 2.20002 21.7 0.800018 17.6 0.800018C8.00004 0.800018 0.100037 8.70002 0.100037 18.3C0.100037 28 8.00004 35.8 17.6 35.8C21.7 35.8 25.5 34.4 28.4 32C24.4 28.9 21.8 23.9 21.8 18.3Z" fill="#DF1922"/>
<path d="M56.9 18.3C56.9 28 49 35.8 39.4 35.8C35.3 35.8 31.5 34.4 28.6 32C32.7 28.8 35.3 23.8 35.3 18.2C35.3 12.6 32.6 7.80002 28.5 4.60002C31.5 2.30002 35.3 0.800018 39.3 0.800018C49 0.800018 56.9 8.70002 56.9 18.3Z" fill="#F49E1F"/>
<path d="M55.2 29.2V28.6H55.4V28.5H54.8V28.6H55.1V29.2H55.2ZM56.3 29.2V28.5H56.1L55.9 29L55.7 28.5H55.5V29.2H55.6V28.7L55.8 29.1H55.9L56.1 28.7V29.2H56.3Z" fill="#F49E1F"/>
</g>
</svg>
