<svg width="69" height="22" viewBox="0 0 69 22" fill="none" xmlns="http://www.w3.org/2000/svg">
<g>
<path d="M27.8 0L24.4 21.3H29.9L33.3 0H27.8ZM44.3 8.7C42.4 7.8 41.2 7.1 41.2 6.2C41.2 5.3 42.2 4.4 44.3 4.4C46.1 4.4 47.4 4.8 48.4 5.2L49 5.4L49.7 0.9C48.6 0.5 46.9 0 44.8 0C39.4 0 35.6 2.8 35.6 6.8C35.6 9.8 38.3 11.4 40.4 12.4C42.5 13.4 43.2 14.1 43.2 15C43.2 16.4 41.5 17 39.9 17C37.7 17 36.5 16.7 34.8 15.9L34.1 15.6L33.3 20.2C34.6 20.8 36.9 21.3 39.4 21.3C45.1 21.3 48.9 18.5 48.9 14.3C48.9 11.9 47.5 10.1 44.3 8.7ZM63.7 0.1H59.5C58.2 0.1 57.2 0.5 56.6 1.8L48.5 21.3H54.2L55.8 17.1H62.2L63 21.3H68.1L63.7 0.1ZM57.4 12.8C57.5 12.8 59.6 5.9 59.6 5.9L61.3 12.8H57.4ZM19.9 0L14.5 14.5L13.9 11.7C12.9 8.4 9.79999 4.8 6.29999 3.1L11.2 21.4H17L25.6 0H19.9Z" fill="#2394BC"/>
<path d="M12.1 2.7C11.7 1.1 10.4 0 8.6 0H0.1L0 0.4C6.6 2 12.2 7 14 11.8L12.1 2.7Z" fill="#EFC75E"/>
</g>
</svg>
