<svg width="48" height="58" viewBox="0 0 48 58" fill="none" xmlns="http://www.w3.org/2000/svg">
<path d="M23.6123 4.79001C23.0123 4.79001 22.5123 5.29001 22.5123 5.89001C22.5123 6.49001 22.9123 6.99001 23.5123 6.99001C24.2123 7.09001 24.7123 6.59001 24.7123 5.89001C24.7123 5.29001 24.2123 4.79001 23.6123 4.79001Z" fill="#3D73DD"/>
<path d="M45.9123 7.09001C42.8123 7.09001 40.3123 4.59001 40.3123 1.49001C40.3123 0.890015 39.8123 0.390015 39.2123 0.390015H8.01234C7.41234 0.390015 6.91234 0.890015 6.91234 1.49001C6.91234 4.59001 4.41235 7.09001 1.31235 7.09001C0.712347 7.09001 0.212341 7.59001 0.212341 8.19001V26.39C0.212341 40.59 9.41235 53.29 23.3123 57.39C23.4123 57.39 23.5123 57.39 23.6123 57.39C23.7123 57.39 23.8123 57.39 23.9123 57.39C37.4123 53.29 47.0123 40.89 47.0123 26.39V8.19001C47.0123 7.59001 46.5123 7.09001 45.9123 7.09001ZM44.8123 26.39C44.8123 39.69 36.3123 51.19 23.6123 55.19C11.0123 51.29 2.41234 39.69 2.41234 26.39V9.19001C5.81234 8.69001 8.51234 5.99001 9.01234 2.59001H38.1123C38.6123 5.99001 41.3123 8.69001 44.7123 9.19001V26.39H44.8123Z" fill="#3D73DD"/>
<path d="M41.9123 10.69C39.6123 9.69001 37.7123 7.79001 36.7123 5.49001C36.5123 5.09001 36.1123 4.79001 35.7123 4.79001H28.1123C27.5123 4.79001 27.0123 5.29001 27.0123 5.89001C27.0123 6.49001 27.5123 6.99001 28.1123 6.99001H35.0123C36.2123 9.29001 38.0123 11.19 40.3123 12.29V26.29C40.3123 37.19 33.8123 46.59 23.6123 50.39C13.4123 46.59 6.91231 37.19 6.91231 26.29V12.29C9.21231 11.09 11.1123 9.29001 12.2123 6.99001H19.1123C19.7123 6.99001 20.2123 6.49001 20.2123 5.89001C20.2123 5.29001 19.7123 4.79001 19.1123 4.79001H11.5123C11.1123 4.79001 10.7123 5.09001 10.5123 5.49001C9.51231 7.79001 7.61232 9.69001 5.31232 10.69C4.91232 10.89 4.6123 11.29 4.6123 11.69V26.39C4.6123 38.29 12.0123 48.79 23.2123 52.69C23.3123 52.69 23.4123 52.79 23.6123 52.79C23.8123 52.79 23.9123 52.79 24.0123 52.69C35.2123 48.69 42.6123 38.29 42.6123 26.39V11.69C42.5123 11.29 42.3123 10.89 41.9123 10.69Z" fill="#3D73DD"/>
<path d="M23.6123 16.59C18.1123 16.59 13.6123 21.09 13.6123 26.59C13.6123 32.09 18.1123 36.59 23.6123 36.59C29.1123 36.59 33.6123 32.09 33.6123 26.59C33.6123 21.09 29.1123 16.59 23.6123 16.59ZM23.6123 34.49C19.3123 34.49 15.8123 30.99 15.8123 26.69C15.8123 22.39 19.3123 18.89 23.6123 18.89C27.9123 18.89 31.4123 22.39 31.4123 26.69C31.4123 30.99 27.9123 34.49 23.6123 34.49Z" fill="#3D73DD"/>
<path d="M28.8123 23.59C28.4123 23.19 27.7123 23.19 27.2123 23.59L22.4123 28.39L21.0123 26.99C20.6123 26.59 19.9123 26.59 19.4123 26.99C19.0123 27.39 19.0123 28.09 19.4123 28.59L21.6123 30.79C21.8123 30.99 22.1123 31.09 22.4123 31.09C22.7123 31.09 23.0123 30.99 23.2123 30.79L28.8123 25.19C29.3123 24.79 29.3123 24.09 28.8123 23.59Z" fill="#3D73DD"/>
</svg>
