<svg width="64" height="58" viewBox="0 0 64 58" fill="none" xmlns="http://www.w3.org/2000/svg">
<path d="M51.0123 12.69C50.7123 12.39 50.2124 12.19 49.8124 12.39L48.0123 13.09L42.5123 0.990015C42.3123 0.590015 42.0123 0.390015 41.5123 0.390015H23.7124C23.4124 0.390015 23.1124 0.490015 22.9124 0.790015L12.8124 12.89C12.6124 13.09 12.5123 13.39 12.6123 13.69C12.7123 13.99 12.8123 14.19 13.0123 14.49L23.1123 21.99C23.6123 22.29 24.3123 22.29 24.6123 21.79L31.2124 12.89L34.4124 18.49L32.4124 19.49C32.0124 19.69 31.8124 20.09 31.9124 20.49C32.0124 20.89 32.2124 21.29 32.7124 21.39L43.9124 24.09C44.0124 24.09 44.0124 24.09 44.2124 24.09C44.5124 24.09 44.9123 23.89 45.1123 23.59L51.1123 13.89C51.4123 13.49 51.3123 12.99 51.0123 12.69ZM23.5123 19.49L15.2124 13.29L24.2124 2.49001H25.6123L30.1123 10.79L23.5123 19.49ZM43.6123 21.89L36.0123 20.09L36.4124 19.89C36.7124 19.79 36.9124 19.59 36.9124 19.29C37.0124 18.99 37.0124 18.79 36.8124 18.49L32.3124 10.39L28.1123 2.49001H40.8124L46.4124 14.99C46.6124 15.39 47.1123 15.69 47.5123 15.59L43.6123 21.89Z" fill="#3D73DD"/>
<path d="M27.3124 40.39L16.2123 39.89L19.1123 34.09L21.0123 35.19C21.4123 35.39 21.9123 35.39 22.2123 35.09C22.5123 34.79 22.7123 34.29 22.5123 33.89L18.5123 23.09C18.4123 22.69 18.0123 22.39 17.5123 22.39L6.11234 22.79C5.61234 22.79 5.31234 23.09 5.11234 23.59C5.01234 23.99 5.21234 24.49 5.51234 24.79L7.11234 25.89L0.212347 37.29C0.0123474 37.59 0.0123474 38.09 0.212347 38.49L7.91236 49.79L10.8124 54.29C11.0124 54.59 11.3123 54.79 11.7123 54.79H27.3124C27.9124 54.79 28.4124 54.29 28.4124 53.69V41.49C28.3124 40.89 27.9124 40.49 27.3124 40.39ZM9.41236 48.29L2.31235 37.69L9.51233 26.09C9.81234 25.69 9.71236 25.19 9.41236 24.89L16.9124 24.59L19.6123 31.99L19.2123 31.79C18.9123 31.69 18.7124 31.59 18.4124 31.69C18.1124 31.79 17.9124 31.99 17.8124 32.19L13.7123 40.39L9.41236 48.29ZM26.2123 52.49H12.2123L10.8124 50.39L15.2123 41.99L26.2123 42.49V52.49Z" fill="#3D73DD"/>
<path d="M63.6123 36.79L56.7124 22.69C56.6124 22.39 56.4123 22.19 56.1123 22.19C55.8123 22.09 55.6124 22.09 55.3124 22.29L44.3124 28.39C43.8124 28.69 43.6124 29.39 43.9124 29.79L49.2124 39.49L42.8124 39.99L42.7124 37.79C42.7124 37.29 42.4124 36.99 41.9124 36.79C41.5124 36.69 41.0124 36.79 40.7124 37.09L33.6123 46.19C33.3123 46.49 33.3123 47.09 33.5123 47.39L39.9124 56.89C40.1124 57.19 40.4124 57.39 40.8124 57.39C40.9124 57.39 41.0123 57.39 41.1123 57.29C41.5123 57.19 41.9124 56.79 41.9124 56.29L42.0123 54.39H55.3124C55.7124 54.39 56.1124 54.09 56.3124 53.79L63.6123 37.59C63.8123 37.39 63.8123 37.09 63.6123 36.79ZM54.8124 52.49H41.2124C40.7124 52.49 40.3124 52.79 40.2124 53.29L36.0123 47.09L40.9124 40.89V41.39C40.9124 41.69 41.0124 41.89 41.2124 42.19C41.4124 42.39 41.7123 42.49 42.0123 42.49L51.2124 41.69L60.1123 41.09L54.8124 52.49ZM61.0123 38.59L51.6123 39.29L46.3124 29.69L55.3124 24.59L61.5123 37.29L61.0123 38.59Z" fill="#3D73DD"/>
</svg>
