<svg width="33" height="59" viewBox="0 0 33 59" fill="none" xmlns="http://www.w3.org/2000/svg">
<path d="M23.1123 33.69V18.99C23.1123 18.39 22.6123 17.89 22.0123 17.89C21.4123 17.89 20.9124 18.39 20.9124 18.99V34.19C20.9124 34.49 21.1124 34.89 21.4124 35.09C24.5124 37.29 26.4124 40.89 26.4124 44.79C26.4124 51.29 21.1123 56.59 14.6123 56.59C8.11234 56.59 2.81235 51.29 2.81235 44.79C2.81235 40.99 4.71235 37.39 7.81235 35.09C8.11235 34.89 8.31235 34.59 8.31235 34.19V9.59002C8.31235 6.09002 11.2123 3.19002 14.7123 3.19002C18.2123 3.19002 21.1123 6.09002 21.1123 9.59002V15.59C21.1123 16.19 21.6123 16.69 22.2123 16.69C22.8123 16.69 23.3123 16.19 23.3123 15.59V9.59002C23.3123 4.89002 19.5123 0.990021 14.7123 0.990021C10.0123 0.990021 6.11234 4.79002 6.11234 9.59002V33.69C2.71234 36.29 0.712341 40.49 0.712341 44.79C0.712341 52.49 7.01234 58.79 14.7123 58.79C22.4123 58.79 28.7123 52.49 28.7123 44.79C28.5123 40.39 26.5123 36.29 23.1123 33.69Z" fill="#3D73DD"/>
<path d="M14.5123 52.09C13.0123 52.09 11.5123 51.59 10.3123 50.79C10.1123 50.59 9.81233 50.59 9.51233 50.59C9.21233 50.59 9.01235 50.79 8.81235 50.99C8.61235 51.19 8.61234 51.49 8.61234 51.79C8.61234 52.09 8.81233 52.29 9.01233 52.49C10.6123 53.59 12.5124 54.19 14.4124 54.19C19.6124 54.19 23.9124 49.99 23.9124 44.69C23.9124 41.59 22.4124 38.79 19.9124 36.99L18.4124 35.99V9.59003C18.4124 7.39003 16.6124 5.59003 14.4124 5.59003C12.2124 5.59003 10.4124 7.39003 10.4124 9.59003V35.99L8.91235 36.99C6.41235 38.79 4.91235 41.69 4.91235 44.69C4.91235 46.59 5.51233 48.39 6.51233 49.99C6.81233 50.49 7.51233 50.59 8.01233 50.29C8.51233 49.99 8.61235 49.29 8.31235 48.79C7.51235 47.59 7.11234 46.19 7.11234 44.69C7.11234 42.29 8.21234 40.09 10.2123 38.69L12.1123 37.29C12.4123 37.09 12.6123 36.79 12.6123 36.39V33.29H16.4124V36.39C16.4124 36.69 16.6124 37.09 16.9124 37.29L18.8123 38.69C20.7123 40.09 21.9124 42.29 21.9124 44.69C21.8124 48.79 18.6123 52.09 14.5123 52.09ZM16.4124 26.99V31.39H12.7123V26.99H16.4124ZM16.4124 20.49V24.89H12.7123V20.49H16.4124ZM16.4124 13.99V18.39H12.7123V13.99H16.4124ZM16.4124 9.59003V11.89H12.7123V9.59003C12.7123 8.59003 13.5123 7.69003 14.6123 7.69003C15.6123 7.69003 16.4124 8.49003 16.4124 9.59003Z" fill="#3D73DD"/>
<path d="M29.0123 3.79002C27.3123 3.79002 26.0123 5.09002 26.0123 6.79002C26.0123 8.49002 27.3123 9.79002 29.0123 9.79002C30.7123 9.79002 32.0123 8.49002 32.0123 6.79002C32.0123 5.09002 30.6123 3.79002 29.0123 3.79002ZM29.8123 6.79002C29.8123 7.29002 29.4124 7.69002 28.9124 7.69002C28.4124 7.69002 28.0123 7.29002 28.0123 6.79002C28.0123 6.29002 28.4124 5.89002 28.9124 5.89002C29.4124 5.89002 29.8123 6.29002 29.8123 6.79002Z" fill="#3D73DD"/>
</svg>
