<svg width="58" height="56" viewBox="0 0 58 56" fill="none" xmlns="http://www.w3.org/2000/svg">
<path d="M39.5123 28.79H35.6124V26.79H37.8123C38.4123 26.79 38.9124 26.29 38.9124 25.69C38.9124 25.09 38.4123 24.59 37.8123 24.59H35.6124V23.89C35.6124 23.29 35.1123 22.79 34.5123 22.79H33.8123V20.59C33.8123 19.99 33.3123 19.49 32.7123 19.49C32.1123 19.49 31.6124 19.99 31.6124 20.59V22.79H29.6124V18.89C29.6124 18.29 29.1123 17.79 28.5123 17.79C27.9123 17.79 27.4124 18.29 27.4124 18.89V22.79H25.4124V20.59C25.4124 19.99 24.9123 19.49 24.3123 19.49C23.7123 19.49 23.2123 19.99 23.2123 20.59V22.79H22.5123C21.9123 22.79 21.4124 23.29 21.4124 23.89V24.59H19.2123C18.6123 24.59 18.1124 25.09 18.1124 25.69C18.1124 26.29 18.6123 26.79 19.2123 26.79H21.4124V28.79H17.5123C16.9123 28.79 16.4124 29.29 16.4124 29.89C16.4124 30.49 16.9123 30.99 17.5123 30.99H21.4124V32.99H19.2123C18.6123 32.99 18.1124 33.49 18.1124 34.09C18.1124 34.69 18.6123 35.19 19.2123 35.19H21.4124V35.89C21.4124 36.49 21.9123 36.99 22.5123 36.99H23.2123V39.19C23.2123 39.79 23.7123 40.29 24.3123 40.29C24.9123 40.29 25.4124 39.79 25.4124 39.19V36.99H27.4124V40.89C27.4124 41.49 27.9123 41.99 28.5123 41.99C29.1123 41.99 29.6124 41.49 29.6124 40.89V36.99H31.6124V39.19C31.6124 39.79 32.1123 40.29 32.7123 40.29C33.3123 40.29 33.8123 39.79 33.8123 39.19V36.99H34.5123C35.1123 36.99 35.6124 36.49 35.6124 35.89V35.19H37.8123C38.4123 35.19 38.9124 34.69 38.9124 34.09C38.9124 33.49 38.4123 32.99 37.8123 32.99H35.6124V30.99H39.5123C40.1123 30.99 40.6124 30.49 40.6124 29.89C40.6124 29.29 40.1123 28.79 39.5123 28.79ZM23.6124 34.79V24.99H33.4124V34.89H23.6124V34.79Z" fill="#3D73DD"/>
<path d="M53.4124 44.99V40.99C53.4124 40.39 52.9123 39.89 52.3123 39.89H45.5123V35.29H49.6124C50.1124 36.79 51.5123 37.89 53.2123 37.89C55.3123 37.89 57.0123 36.19 57.0123 34.09C57.0123 31.99 55.3123 30.29 53.2123 30.29C51.5123 30.29 50.1124 31.39 49.6124 32.89H45.5123V27.99C46.0123 28.19 46.6123 28.39 47.2123 28.39C48.5123 28.39 49.7124 27.79 50.4124 26.79C51.2124 25.79 51.4124 24.49 51.1124 23.19C50.9124 22.49 50.5124 21.89 50.1124 21.39L42.8123 14.09C42.4123 13.69 41.7123 13.69 41.2123 14.09C40.8123 14.49 40.8123 15.19 41.2123 15.69L48.5123 22.99C49.1123 23.59 49.2123 24.49 48.8123 25.19C48.4123 25.99 47.4123 26.39 46.5123 26.09C46.0123 25.89 45.6123 25.39 45.2123 24.99L29.3123 8.89002C29.1123 8.69002 28.8123 8.59002 28.5123 8.59002C28.2123 8.59002 27.9123 8.69002 27.7123 8.89002L11.8123 24.79C11.4123 25.19 11.0124 25.69 10.4124 25.89C9.31235 26.19 8.21233 25.59 8.01233 24.49C7.91233 23.89 8.11233 23.29 8.51233 22.89L28.5123 2.89002L34.2123 8.59002C34.6123 8.99002 35.3123 8.99002 35.8123 8.59002C36.2123 8.19002 36.2123 7.49002 35.8123 6.99002L29.3123 0.490018C29.1123 0.290018 28.8123 0.190018 28.5123 0.190018C28.2123 0.190018 27.9123 0.290018 27.7123 0.490018L6.91235 21.29C5.91235 22.29 5.51235 23.89 5.91235 25.29C6.31235 26.69 7.51235 27.79 8.91235 28.09C9.81235 28.29 10.7123 28.19 11.5123 27.89V32.99H7.41235C6.91235 31.49 5.51232 30.39 3.81232 30.39C1.71232 30.39 0.0123291 32.09 0.0123291 34.19C0.0123291 36.29 1.71232 37.99 3.81232 37.99C5.51232 37.99 6.91235 36.89 7.41235 35.39H11.5123V39.99H4.71234C4.11234 39.99 3.61237 40.49 3.61237 41.09V44.99C2.11237 45.49 1.01233 46.89 1.01233 48.59C1.01233 50.69 2.71232 52.39 4.81232 52.39C6.91232 52.39 8.61237 50.69 8.61237 48.59C8.61237 46.89 7.51233 45.49 6.01233 44.99V42.19H11.6124V44.79C11.6124 45.39 12.1123 45.89 12.7123 45.89H14.8123V51.39C14.8123 51.99 15.3124 52.49 15.9124 52.49C16.5124 52.49 17.0123 51.99 17.0123 51.39V45.89H19.0123V54.29C19.0123 54.89 19.5124 55.39 20.1124 55.39C20.7124 55.39 21.2123 54.89 21.2123 54.29V45.89H23.2123V51.39C23.2123 51.99 23.7123 52.49 24.3123 52.49C24.9123 52.49 25.4124 51.99 25.4124 51.39V45.89H27.4124V54.29C27.4124 54.89 27.9123 55.39 28.5123 55.39C29.1123 55.39 29.6124 54.89 29.6124 54.29V45.89H31.6124V51.39C31.6124 51.99 32.1123 52.49 32.7123 52.49C33.3123 52.49 33.8123 51.99 33.8123 51.39V45.89H35.8123V54.29C35.8123 54.89 36.3124 55.39 36.9124 55.39C37.5124 55.39 38.0123 54.89 38.0123 54.29V45.89H40.0123V51.39C40.0123 51.99 40.5124 52.49 41.1124 52.49C41.7124 52.49 42.2123 51.99 42.2123 51.39V45.89H44.3123C44.9123 45.89 45.4124 45.39 45.4124 44.79V42.19H51.0123V44.99C49.5123 45.49 48.4124 46.89 48.4124 48.59C48.4124 50.69 50.1123 52.39 52.2123 52.39C54.3123 52.39 56.0123 50.69 56.0123 48.59C56.1123 46.89 54.9124 45.39 53.4124 44.99ZM53.3123 32.59C54.1123 32.59 54.8123 33.29 54.8123 34.09C54.8123 34.89 54.1123 35.59 53.3123 35.59C52.5123 35.59 51.8123 34.89 51.8123 34.09C51.7123 33.29 52.4123 32.59 53.3123 32.59ZM3.71234 35.69C2.91234 35.69 2.21234 34.99 2.21234 34.19C2.21234 33.39 2.91234 32.69 3.71234 32.69C4.51234 32.69 5.21234 33.39 5.21234 34.19C5.21234 34.99 4.61234 35.69 3.71234 35.69ZM4.71234 50.09C3.91234 50.09 3.21234 49.39 3.21234 48.59C3.21234 47.79 3.91234 47.09 4.71234 47.09C5.51234 47.09 6.21234 47.79 6.21234 48.59C6.21234 49.39 5.51234 50.09 4.71234 50.09ZM43.3123 43.59H13.7123V26.09L28.5123 11.29L43.3123 26.09V43.59ZM52.3123 50.09C51.5123 50.09 50.8123 49.39 50.8123 48.59C50.8123 47.79 51.5123 47.09 52.3123 47.09C53.1123 47.09 53.8123 47.79 53.8123 48.59C53.8123 49.39 53.1123 50.09 52.3123 50.09Z" fill="#3D73DD"/>
<path d="M38.5123 12.39C38.8123 12.39 39.1123 12.29 39.3123 12.09C39.7123 11.69 39.7123 10.99 39.3123 10.49C38.9123 10.09 38.2124 10.09 37.7124 10.49C37.3124 10.89 37.3124 11.59 37.7124 12.09C37.9124 12.29 38.2123 12.39 38.5123 12.39Z" fill="#3D73DD"/>
</svg>
