<svg width="48" height="58" viewBox="0 0 48 58" fill="none" xmlns="http://www.w3.org/2000/svg">
<path d="M24.3123 4.79001C23.7123 4.79001 23.2123 5.29001 23.2123 5.89001C23.2123 6.49001 23.6123 6.99001 24.2123 6.99001C24.9123 7.09001 25.4124 6.59001 25.4124 5.89001C25.5124 5.29001 25.0123 4.79001 24.3123 4.79001Z" fill="#3D73DD"/>
<path d="M46.6124 7.09001C43.5124 7.09001 41.0123 4.59001 41.0123 1.49001C41.0123 0.890015 40.5124 0.390015 39.9124 0.390015H8.71234C8.11234 0.390015 7.61237 0.890015 7.61237 1.49001C7.61237 4.59001 5.11233 7.09001 2.01233 7.09001C1.41233 7.09001 0.912354 7.59001 0.912354 8.19001V26.39C0.912354 40.59 10.1123 53.29 24.0123 57.39C24.1123 57.39 24.2123 57.39 24.3123 57.39C24.4123 57.39 24.5124 57.39 24.6124 57.39C38.1124 53.29 47.7123 40.89 47.7123 26.39V8.19001C47.7123 7.59001 47.2124 7.09001 46.6124 7.09001ZM45.5123 26.39C45.5123 39.69 37.0123 51.19 24.3123 55.19C11.7123 51.29 3.11237 39.69 3.11237 26.39V9.19001C6.51237 8.69001 9.21234 5.99001 9.71234 2.59001H38.8123C39.3123 5.99001 42.0124 8.69001 45.4124 9.19001V26.39H45.5123Z" fill="#3D73DD"/>
<path d="M42.6124 10.69C40.3124 9.69001 38.4124 7.79001 37.4124 5.49001C37.2124 5.09001 36.8124 4.79001 36.4124 4.79001H28.8123C28.2123 4.79001 27.7123 5.29001 27.7123 5.89001C27.7123 6.49001 28.2123 6.99001 28.8123 6.99001H35.7123C36.9123 9.29001 38.7123 11.19 41.0123 12.29V26.29C41.0123 37.19 34.5123 46.59 24.3123 50.39C14.1123 46.59 7.61237 37.19 7.61237 26.29V12.29C9.91237 11.09 11.8124 9.29001 12.9124 6.99001H19.8123C20.4123 6.99001 20.9124 6.49001 20.9124 5.89001C20.9124 5.29001 20.4123 4.79001 19.8123 4.79001H12.2123C11.8123 4.79001 11.4123 5.09001 11.2123 5.49001C10.2123 7.79001 8.31233 9.69001 6.01233 10.69C5.61233 10.89 5.31232 11.29 5.31232 11.69V26.39C5.31232 38.29 12.7124 48.79 23.9124 52.69C24.0124 52.69 24.1123 52.79 24.3123 52.79C24.5123 52.79 24.6123 52.79 24.7123 52.69C35.9123 48.69 43.3123 38.29 43.3123 26.39V11.69C43.3123 11.29 43.0124 10.89 42.6124 10.69Z" fill="#3D73DD"/>
<path d="M31.6124 20.59C31.2124 20.19 30.7124 19.69 30.2124 19.39C29.9124 19.19 29.5124 19.29 29.2124 19.49C28.9124 19.69 28.5123 19.99 28.8123 24.59C28.8123 24.89 28.8123 24.99 28.8123 25.09C28.6123 26.09 27.7123 26.59 27.0123 26.69C26.7123 26.79 25.5123 26.89 24.8123 25.79C24.4123 25.09 24.4124 24.29 24.7124 23.49C24.8124 23.29 24.8124 23.19 24.9124 22.99C25.1124 22.59 25.2124 22.29 25.4124 21.99C26.9124 19.49 26.7124 16.49 24.7124 13.69C24.5124 13.49 24.3123 13.29 24.0123 13.29C23.7123 13.29 23.4124 13.39 23.2124 13.59C22.4124 14.39 21.7123 15.19 21.0123 15.99C20.1123 16.99 19.3123 17.99 18.3123 18.89C16.9123 20.39 15.0123 22.69 14.5123 25.49C14.1123 27.39 14.4123 29.49 15.3123 31.29C16.8123 34.49 20.3124 36.79 23.9124 36.99C24.0124 36.99 24.2123 36.99 24.3123 36.99C27.8123 36.99 31.1123 35.09 32.8123 32.09C35.1123 28.19 34.6124 23.59 31.6124 20.59ZM31.2124 31.19C29.8124 33.69 26.9123 35.29 24.0123 35.19C21.1123 35.09 18.3124 33.19 17.1124 30.59C16.4124 29.19 16.2123 27.59 16.5123 25.99C16.8123 24.19 17.9123 22.39 19.8123 20.29C20.7123 19.29 21.6123 18.29 22.5123 17.29C22.9123 16.79 23.4123 16.29 23.8123 15.79C24.4123 17.09 25.0123 18.99 23.8123 20.99C23.5123 21.39 23.4124 21.79 23.2124 22.19C23.1124 22.29 23.1123 22.49 23.0123 22.59C22.4123 23.89 22.5124 25.39 23.2124 26.59C24.1124 27.99 25.6124 28.69 27.4124 28.49C29.1124 28.19 30.4123 26.99 30.8123 25.39C30.9123 25.09 30.9124 24.69 30.9124 24.29C30.8124 23.59 30.8123 22.89 30.8123 22.29C32.7123 24.69 32.9124 28.19 31.2124 31.19Z" fill="#3D73DD"/>
</svg>
