<svg width="59" height="58" viewBox="0 0 59 58" fill="none" xmlns="http://www.w3.org/2000/svg">
<path d="M47.4123 11.89C53.2123 11.89 58.0123 7.09002 58.0123 1.29002C58.0123 0.690018 57.5123 0.190018 56.9123 0.190018H1.81234C1.21234 0.190018 0.712341 0.690018 0.712341 1.29002C0.712341 7.09002 5.51234 11.89 11.3123 11.89H23.5123V15.39H21.7123C21.1123 15.39 20.6123 15.89 20.6123 16.49V21.09H16.5123C14.0123 21.09 11.9123 22.99 11.6123 25.49L8.61234 52.09C8.41234 53.49 8.91234 54.89 9.81234 55.89C10.7123 56.89 12.1123 57.49 13.5123 57.49H44.9123C46.3123 57.49 47.6123 56.89 48.6123 55.89C49.5123 54.89 50.0123 53.49 49.8123 52.09L46.8123 25.49C46.5123 22.99 44.4123 21.09 41.9123 21.09H37.8123V16.49C37.8123 15.89 37.3123 15.39 36.7123 15.39H34.9123V11.89H47.4123ZM47.1123 54.39C46.6123 54.99 45.9123 55.29 45.1123 55.29H13.6123C12.8123 55.29 12.1123 54.99 11.6123 54.39C11.1123 53.79 10.8123 53.09 10.9123 52.29L13.9123 25.69C14.1123 24.29 15.2123 23.29 16.6123 23.29H42.1123C43.5123 23.29 44.6123 24.29 44.8123 25.69L47.8123 52.29C47.8123 53.09 47.6123 53.89 47.1123 54.39ZM35.8123 21.09H34.2123V19.19H32.0123V21.09H30.4123V19.19H28.2123V21.09H26.6123V19.19H24.4123V21.09H22.8123V17.59H35.8123V21.09ZM25.7123 15.39V11.89H33.0123V15.39H25.7123ZM47.4123 9.69002H11.3123C7.11234 9.69002 3.51234 6.59002 3.01234 2.39002H55.7123C55.2123 6.59002 51.6123 9.69002 47.4123 9.69002Z" fill="#3D73DD"/>
<path d="M29.3123 27.79C22.9123 27.79 17.8123 32.99 17.8123 39.29C17.8123 43.99 20.6123 48.19 24.9123 49.99C26.3123 50.59 27.8123 50.89 29.3123 50.89C32.3123 50.89 35.2123 49.69 37.5123 47.49C40.8123 44.19 41.8123 39.19 40.0123 34.89C38.2123 30.59 34.0123 27.79 29.3123 27.79ZM29.9123 39.89C29.7123 40.09 29.3123 40.19 29.0123 40.09C28.7123 39.99 28.5123 39.69 28.5123 39.39C28.5123 38.99 28.9123 38.59 29.3123 38.59C29.6123 38.59 29.9123 38.79 30.0123 39.09C30.2123 39.29 30.1123 39.69 29.9123 39.89ZM28.2123 36.49C26.9123 36.99 26.1123 38.39 26.3123 39.79C26.5123 41.19 27.8123 42.29 29.3123 42.29C30.8123 42.29 32.0123 41.29 32.3123 39.79C32.5123 38.39 31.8123 36.99 30.4123 36.49V29.99C35.3123 30.59 38.9123 34.79 38.6123 39.79C38.4123 44.79 34.2123 48.69 29.3123 48.69C24.3123 48.69 20.2123 44.79 20.0123 39.79C19.8123 34.89 23.4123 30.59 28.2123 29.99V36.49Z" fill="#3D73DD"/>
</svg>
