<svg width="26" height="22" viewBox="0 0 26 22" fill="none" xmlns="http://www.w3.org/2000/svg">
<path d="M24.6 5.37501H1.89996C1.29996 5.37501 0.899963 4.97501 0.899963 4.37501V1.97501C0.899963 1.37501 1.29996 0.975006 1.89996 0.975006H24.7C25.3 0.975006 25.7 1.37501 25.7 1.97501V4.37501C25.6 4.97501 25.2 5.37501 24.6 5.37501Z" fill="#3d73dd"/>
<path d="M24.6 13.475H1.89996C1.29996 13.475 0.899963 13.075 0.899963 12.475V10.175C0.899963 9.57502 1.29996 9.17502 1.89996 9.17502H24.7C25.3 9.17502 25.7 9.57502 25.7 10.175V12.475C25.6 12.975 25.2 13.475 24.6 13.475Z" fill="#3d73dd"/>
<path d="M24.6 21.475H1.89996C1.29996 21.475 0.899963 21.075 0.899963 20.475V18.175C0.899963 17.575 1.29996 17.175 1.89996 17.175H24.7C25.3 17.175 25.7 17.575 25.7 18.175V20.475C25.6 21.075 25.2 21.475 24.6 21.475Z" fill="#3d73dd"/>
</svg>
