<svg width="16" height="16" viewBox="0 0 16 16" fill="none" xmlns="http://www.w3.org/2000/svg">
<path class="check" d="M4.79998 5.82767C4.69998 5.72767 4.59998 5.72767 4.49998 5.72767C4.39998 5.72767 4.29998 5.72767 4.29998 5.82767L3.19998 6.92767C3.09998 7.02767 3.09998 7.12767 3.09998 7.22767C3.09998 7.32767 3.09998 7.42767 3.19998 7.42767L6.79998 11.0277C6.89998 11.1277 6.99998 11.1277 6.99998 11.1277C6.99998 11.1277 7.19998 11.1277 7.19998 11.0277L15.2 3.02767C15.3 2.92767 15.3 2.82767 15.3 2.82767C15.3 2.82767 15.3 2.62767 15.2 2.62767L14.1 1.52767C14 1.42767 13.7 1.42767 13.6 1.52767L6.99998 8.02767L4.79998 5.82767Z" fill="#1062B4"/>
<path d="M14.7 6.42768H13.1C12.9 6.42768 12.7 6.62768 12.7 6.72768V12.8277H2.3V2.32768H10C10.2 2.32768 10.4 2.12768 10.4 1.92768V0.427679C10.3 0.227679 10.1 0.0276794 10 0.0276794H2C0.9 0.0276794 0 0.927679 0 2.02768V13.2277C0 14.3277 0.9 15.1277 2 15.1277H13.2C14.3 15.1277 15.1 14.2277 15.1 13.2277V6.72768C15.1 6.62768 14.9 6.42768 14.7 6.42768Z" fill="#1062B4"/>
</svg>