<svg width="8" height="8" viewBox="0 0 8 8" fill="none" xmlns="http://www.w3.org/2000/svg">
<path d="M4.70006 4.22502L6.90005 2.02502C7.20006 1.72502 7.20006 1.32502 6.90005 1.02502C6.60005 0.725018 6.20006 0.725018 5.90005 1.02502L3.70006 3.22502L1.50005 1.02502C1.20005 0.725018 0.800055 0.725018 0.500055 1.02502C0.200055 1.32502 0.200055 1.72502 0.500055 2.02502L2.70006 4.22502L0.500055 6.42502C0.200055 6.72502 0.200055 7.12502 0.500055 7.42502C0.600055 7.52502 0.800055 7.62502 1.00005 7.62502C1.20005 7.62502 1.40005 7.52502 1.50005 7.42502L3.70006 5.22502L5.90005 7.42502C6.00005 7.52502 6.20006 7.62502 6.40005 7.62502C6.60005 7.62502 6.80006 7.52502 6.90005 7.42502C7.20006 7.12502 7.20006 6.72502 6.90005 6.42502L4.70006 4.22502Z" fill="#3d73dd"/>
</svg>
