<svg width="37" height="26" viewBox="0 0 37 26" fill="none" xmlns="http://www.w3.org/2000/svg">
<path d="M31.3886 26H5.61137C2.63033 26 0 23.5415 0 20.3805V5.62936C0 3.52205 1.22749 1.59035 3.1564 0.536694C5.08531 -0.341351 7.36493 -0.165742 8.94313 1.23913L17.5355 7.91227C18.237 8.4391 18.9384 8.4391 19.6398 7.91227L28.0569 1.23913C29.8104 -0.165742 31.9147 -0.341351 33.8436 0.536694C35.7725 1.41474 37 3.34644 37 5.62936V20.5561C37 23.5415 34.545 26 31.3886 26ZM5.61137 3.87327C5.26066 3.87327 4.90995 4.04887 4.7346 4.04887C4.55924 4.22448 3.85782 4.5757 3.85782 5.62936V20.5561C3.85782 21.4342 4.55924 22.3122 5.61137 22.3122H31.564C32.4408 22.3122 33.3175 21.6098 33.3175 20.5561V5.62936C33.3175 4.5757 32.6161 4.22448 32.4408 4.04887C32.2654 3.87327 31.3886 3.69766 30.6872 4.22448L22.2701 10.8976C20.1659 12.4781 17.3602 12.4781 15.4313 10.8976L6.66351 4.22448C6.3128 4.04887 5.96209 3.87327 5.61137 3.87327Z" fill="#3D73DD"/>
</svg>
