<svg width="13" height="15" viewBox="0 0 13 15" fill="none" xmlns="http://www.w3.org/2000/svg">
<path d="M10.8627 1.74999C8.56272 -0.550006 4.76272 -0.550006 2.36272 1.74999C1.26272 2.84999 0.66272 4.34999 0.66272 5.94999C0.66272 7.54999 1.26272 9.04999 2.46272 10.15L6.66272 14.45L10.8627 10.25C13.2627 7.84999 13.2627 4.04999 10.8627 1.74999ZM9.46272 8.74999L6.66272 11.65L3.86272 8.74999C2.26272 7.14999 2.26272 4.64999 3.86272 3.04999C5.46272 1.44999 7.96272 1.44999 9.56272 3.04999C10.2627 3.84999 10.6627 4.84999 10.6627 5.94999C10.6627 7.04999 10.2627 8.04999 9.46272 8.74999Z" fill="#1062B4"/>
<path d="M6.66272 8.04999C7.76729 8.04999 8.66272 7.15456 8.66272 6.04999C8.66272 4.94542 7.76729 4.04999 6.66272 4.04999C5.55815 4.04999 4.66272 4.94542 4.66272 6.04999C4.66272 7.15456 5.55815 8.04999 6.66272 8.04999Z" fill="#1062B4"/>
</svg>