<svg width="16" height="16" viewBox="0 0 16 16" fill="none" xmlns="http://www.w3.org/2000/svg">
<path d="M15.7 11.6C15.3 10.5 12.5 8.49999 11.3 8.39999C10.1 8.29999 9.5 9.29999 9.2 9.59999C8.9 10.1 9 10.8 9.5 11.1C10 11.4 10.7 11.3 11 10.8C11.1 10.6 11.2 10.6 11.2 10.6C11.7 10.7 13.5 12.1 13.7 12.4V12.5C13.5 13 13.2 13.4 12.9 13.6C12.6 13.8 12.1 13.7 11.7 13.5C9.4 12.6 7.5 11.4 6 9.79999C4.4 8.29999 3.2 6.39999 2.3 4.19999C2.1 3.79999 2.1 3.29999 2.3 2.99999C2.5 2.59999 2.8 2.39999 3.4 2.19999C3.5 2.19999 3.5 2.19999 3.5 2.19999C3.9 2.39999 5.3 4.29999 5.4 4.59999C5.4 4.59999 5.3 4.69999 5.1 4.79999C4.6 5.09999 4.5 5.79999 4.8 6.29999C5 6.49999 5.2 6.69999 5.5 6.79999C5.8 6.89999 6.1 6.79999 6.3 6.59999C6.7 6.29999 7.6 5.69999 7.5 4.49999C7.4 3.29999 5.4 0.499994 4.3 0.0999939C3.7 -6.10203e-06 3.2 -6.10203e-06 2.6 0.0999939C1.5 0.499994 0.7 1.19999 0.3 2.09999C-0.1 2.99999 -0.1 3.99999 0.3 5.09999C1.3 7.49999 2.7 9.69999 4.4 11.4C6.2 13.1 8.3 14.5 10.7 15.5C11.2 15.7 11.8 15.8 12.3 15.8C12.8 15.8 13.3 15.7 13.7 15.5C14.6 15.1 15.3 14.3 15.7 13.2C15.9 12.6 15.9 12.1 15.7 11.6Z" fill="#1062B4"/>
</svg>
