<svg width="31" height="46" viewBox="0 0 31 46" fill="none" xmlns="http://www.w3.org/2000/svg">
<path d="M25.943 13.4625L4.37712 13.4127C2.10849 13.4074 0.265884 15.2261 0.260684 17.4774L2.43187 40.9312C2.42667 43.1812 4.26222 45.0097 6.5308 45.015L23.9883 45.0553C26.2569 45.0605 28.1009 43.2405 28.1061 40.9905L30.0434 17.5462C30.0457 15.2949 28.2116 13.4677 25.943 13.4625ZM9.62618 37.8884C9.62358 39.0126 8.70231 39.9212 7.56796 39.9186C6.43367 39.916 5.51661 39.0017 5.5192 37.8789L5.56159 19.5289C5.56419 18.4046 6.48547 17.4918 7.61976 17.4944C8.75411 17.497 9.67116 18.4141 9.66856 19.5384L9.62618 37.8884ZM16.8147 37.905C16.8121 39.0292 15.8909 39.9378 14.7566 39.9352C13.6223 39.9326 12.7052 39.0183 12.7078 37.8955L12.7502 19.5455C12.7528 18.4212 13.6741 17.5084 14.8084 17.511C15.9427 17.5136 16.8597 18.4307 16.8571 19.555L16.8147 37.905ZM24.0034 37.9216C24.0008 39.0458 23.0795 39.9544 21.9452 39.9518C20.8109 39.9492 19.8938 39.0349 19.8964 37.9121L19.9388 19.5621C19.9414 18.4378 20.8627 17.525 21.997 17.5276C23.1313 17.5302 24.0484 18.4473 24.0458 19.5716L24.0034 37.9216ZM3.28522 11.3723L28.1639 5.08206C29.5379 4.7359 30.3681 3.34876 30.0178 1.98526C29.6675 0.621757 28.2697 -0.202145 26.8957 0.141236L19.2486 2.07545C18.5428 1.03131 17.2365 0.480762 15.9394 0.807672L12.9552 1.56463C11.658 1.89296 10.7768 2.99576 10.6594 4.24732L2.01701 6.4343C0.643031 6.78047 -0.185787 8.16761 0.16309 9.53111C0.513395 10.896 1.91124 11.7171 3.28522 11.3723Z" fill="white"/>
</svg>
