<svg viewBox="0 0 219 35" fill="none" xmlns="http://www.w3.org/2000/svg">
<g >
<path d="M61.8 9.60001V12.9H51.4V15H58.2C61.5 15 63.9 17.2 63.9 20.4C63.9 23.4 61.5 26 58.2 26H47.7V9.60001H61.8ZM51.4 22.6H57.9C59.6 22.6 60.2 21.6 60.2 20.4C60.2 19.2 59.6 18.3 57.8 18.3H51.3V22.6H51.4Z" fill="#1A1A1A"/>
<path d="M81 9.60001V12.9H69.9V15.9H79.9V19.2H69.9V22.4H81.5V25.8H66.2V9.60001H81Z" fill="#1A1A1A"/>
<path d="M101.5 9.60001V25.9H97.8V12.9H91.5L89.8 21.8C89.3 24.7 87.5 26 84.8 26H82.8V22.6H84.6C85.5 22.6 86 22.2 86.2 21.3L88.4 9.60001H101.5Z" fill="#1A1A1A"/>
<path d="M108.1 9.60001V15.6H112.9L117 9.60001H121.3L116.1 17.2L121.7 26H117.3L113 19H108.2V25.9H104.5V9.60001H108.1Z" fill="#1A1A1A"/>
<path d="M136.3 9.60001L143.2 25.9H139.3L138.2 23.4H128.1L127 25.9H123L130.1 9.60001H136.3ZM129.6 20.2H136.9L133.9 12.8H132.6L129.6 20.2Z" fill="#1A1A1A"/>
<path d="M159.7 9.60001V12.9H149.2V15H156C159.3 15 161.7 17.2 161.7 20.4C161.7 23.4 159.3 26 156 26H145.6V9.60001H159.7ZM149.3 22.6H155.8C157.5 22.6 158.1 21.6 158.1 20.4C158.1 19.2 157.4 18.3 155.7 18.3H149.2V22.6H149.3Z" fill="#1A1A1A"/>
<path d="M178.9 9.60001V12.9H167.8V15.9H177.8V19.2H167.8V22.4H179.4V25.8H164.2V9.60001H178.9Z" fill="#1A1A1A"/>
<path d="M199.4 9.60001V25.9H195.7V12.9H189.4L187.7 21.8C187.2 24.7 185.4 26 182.7 26H180.8V22.6H182.6C183.5 22.6 184 22.2 184.2 21.3L186.4 9.60001H199.4Z" fill="#1A1A1A"/>
<path d="M206 9.60001V13.3H211.6C215.4 13.3 218.3 15.7 218.3 19.5C218.3 23.3 215.4 25.9 211.6 25.9H202.3V9.60001H206ZM206 22.5H211.4C213.6 22.5 214.7 21.5 214.7 19.5C214.7 17.5 213.6 16.6 211.4 16.6H206V22.5Z" fill="#1A1A1A"/>
<path class="box" d="M36.3 0H0V34.7H36.3V0Z" fill="#383777"/>
<path d="M25.2 14.1L30.5 6.5H23.8L19.1 13.4H13.4V11.7V6.5H7.70001V11.7V14.2V28.3H21.7C26.3 28.3 29.5 24.8 29.5 20.7C29.5 17.7 27.8 15.2 25.2 14.1ZM21.3 23.1H13.4V18.5H21.2C23 18.5 23.6 19.5 23.6 20.7C23.7 22 23.1 23.1 21.3 23.1Z" fill="white"/>
</g>
</svg>
