<svg width="18" height="19" viewBox="0 0 18 19" fill="none" xmlns="http://www.w3.org/2000/svg">
<path d="M13.7 5.89999C14.2523 5.89999 14.7 5.45228 14.7 4.89999C14.7 4.34771 14.2523 3.89999 13.7 3.89999C13.1477 3.89999 12.7 4.34771 12.7 4.89999C12.7 5.45228 13.1477 5.89999 13.7 5.89999Z" fill="#383777"/>
<path d="M17.2 3.89999C17 3.29999 16.7 2.89999 16.2 2.39999C15.7 1.89999 15.3 1.59999 14.7 1.39999C14.2 1.19999 13.5 0.999994 12.6 0.999994C11.7 0.999994 11.4 0.899994 9.1 0.899994C6.8 0.899994 6.5 0.899994 5.6 0.999994C4.7 0.999994 4.1 1.19999 3.5 1.39999C2.9 1.59999 2.5 1.89999 2 2.39999C1.5 2.89999 1.2 3.29999 1 3.89999C0.9 4.39999 0.800003 4.99999 0.800003 5.99999C0.800003 6.89999 0.699997 7.19999 0.699997 9.49999C0.699997 11.8 0.700003 12.1 0.800003 13C0.800003 13.9 0.999997 14.5 1.2 15.1C1.4 15.7 1.7 16.1 2.2 16.6C2.7 17.1 3.1 17.4 3.7 17.6C4.2 17.8 4.9 18 5.8 18C6.7 18 7 18.1 9.3 18.1C11.6 18.1 11.9 18.1 12.8 18C13.7 18 14.3 17.8 14.9 17.6C15.5 17.4 15.9 17.1 16.4 16.6C16.9 16.1 17.2 15.7 17.4 15.1C17.6 14.6 17.8 13.9 17.8 13C17.8 12.1 17.9 11.8 17.9 9.49999C17.9 7.19999 17.9 6.89999 17.8 5.99999C17.6 4.99999 17.5 4.39999 17.2 3.89999ZM16.1 12.9C16.1 13.7 15.9 14.2 15.8 14.5C15.6 14.9 15.5 15.2 15.2 15.5C14.9 15.8 14.6 16 14.2 16.1C13.9 16.2 13.5 16.4 12.6 16.4C11.7 16.4 11.4 16.4 9.2 16.4C6.9 16.4 6.7 16.4 5.8 16.4C5 16.4 4.5 16.2 4.2 16.1C3.8 15.9 3.5 15.8 3.2 15.5C2.9 15.2 2.7 14.9 2.6 14.5C2.5 14.2 2.3 13.8 2.3 12.9C2.3 12 2.3 11.7 2.3 9.49999C2.3 7.29999 2.3 6.99999 2.3 6.09999C2.3 5.29999 2.5 4.79999 2.6 4.49999C2.8 4.09999 2.9 3.79999 3.2 3.49999C3.5 3.19999 3.8 2.99999 4.2 2.89999C4.5 2.79999 4.9 2.59999 5.8 2.59999C6.7 2.59999 7 2.59999 9.2 2.59999C11.5 2.59999 11.7 2.59999 12.6 2.59999C13.4 2.59999 13.9 2.79999 14.2 2.89999C14.6 3.09999 14.9 3.19999 15.2 3.49999C15.5 3.79999 15.7 4.09999 15.8 4.49999C15.9 4.79999 16.1 5.19999 16.1 6.09999C16.1 6.99999 16.1 7.29999 16.1 9.49999C16.1 11.7 16.2 12 16.1 12.9Z" fill="#383777"/>
<path d="M9.2 5.10001C6.8 5.10001 4.8 7.10001 4.8 9.50001C4.8 11.9 6.8 13.9 9.2 13.9C11.6 13.9 13.6 11.9 13.6 9.50001C13.6 7.10001 11.6 5.10001 9.2 5.10001ZM9.2 12.3C7.6 12.3 6.4 11 6.4 9.50001C6.4 7.90001 7.7 6.70001 9.2 6.70001C10.8 6.70001 12 8.00001 12 9.50001C12 11 10.8 12.3 9.2 12.3Z" fill="#383777"/>
</svg>
