<svg width="20" height="13" viewBox="0 0 20 13" fill="none" xmlns="http://www.w3.org/2000/svg">
<path d="M18.8 1.50001C18.9 1.10001 18.8 0.700012 18.2 0.700012H16C15.5 0.700012 15.2 1.00001 15.1 1.30001C15.1 1.30001 14 3.90001 12.5 5.60001C12 6.10001 11.8 6.20001 11.5 6.20001C11.4 6.20001 11.2 6.00001 11.2 5.60001V1.50001C11.2 1.00001 11 0.700012 10.6 0.700012H7.3C7 0.700012 6.8 1.00001 6.8 1.20001C6.8 1.70001 7.6 1.80001 7.6 3.20001V6.30001C7.6 7.00001 7.5 7.10001 7.2 7.10001C6.5 7.10001 4.8 4.50001 3.7 1.50001C3.6 1.00001 3.4 0.700012 2.8 0.700012H0.7C0.1 0.700012 0 1.00001 0 1.30001C0 1.90001 0.7 4.60001 3.3 8.30001C5 10.8 7.5 12.1 9.7 12.1C11 12.1 11.2 11.8 11.2 11.3V9.40001C11.2 8.80001 11.3 8.70001 11.7 8.70001C12 8.70001 12.5 8.90001 13.8 10.1C15.2 11.5 15.5 12.2 16.3 12.2H18.4C19 12.2 19.3 11.9 19.1 11.3C18.9 10.7 18.2 9.90001 17.3 8.80001C16.8 8.20001 16.1 7.60001 15.9 7.30001C15.6 6.90001 15.7 6.70001 15.9 6.40001C15.9 6.40001 18.5 2.70001 18.8 1.50001Z" fill="#383777"/>
</svg>
